<?xml version="1.0" encoding="UTF-8"?>
<svg id="Layer_1" data-name="Layer 1" xmlns="http://www.w3.org/2000/svg" viewBox="0 0 353.61 399.88">
  <defs>
    <style>
      .cls-1 {
        fill: #ffd5b2;
      }

      .cls-2 {
        fill: #f2a900;
      }
      .cls-lotus{
        fill:#ee267e;
      }
      .cls-face{
        fill: #eeaf6c;
      }
      .cls-red{
        fill: maroon;
      }
      .cls-clothes{
        fill: #f3ae01;
      }
      .cls-red{
        fill:#589795;
      }
    </style>
  </defs>
  <path class="cls-1 cls-face" d="M156.58,169.64c-.03-13.31,1.88-26.6,.51-39.91-.86-8.35-4.8-15.13-10.84-20.75-2.63-2.45-5.88-3.74-9.52-3.87-1.18-.04-2.57-.1-3.08,1.12-.48,1.14,.36,2.25,1.17,3.06,2.23,2.24,4.54,4.4,6.83,6.58,4.82,4.6,7.26,10.27,7.38,16.9,.32,18.81,.6,37.62,.86,56.43,.02,1.59,.66,3.64-1.23,4.49-1.75,.79-3.08-.84-4.43-1.69-26.58-16.87-33.79-39.75-29.81-69.59,.83-6.25,2.41-12.37,4.48-18.37,5.62-16.22,16.75-25.97,33.62-29.11,18-3.35,36.12-3.52,54.13-.69,18.97,2.98,31.43,14.27,37.56,32.39,5.16,15.26,6.43,30.85,3.29,46.73-3.73,18.88-16.22,30.72-32.03,39.84-3.77,2.17-3.36-1.02-3.33-3.05,.16-12.32,.43-24.63,.64-36.95,.09-5.16,.38-10.33,.16-15.48-.48-11.54,2.91-21.24,12.26-28.56,1.62-1.26,4.93-2.75,3.14-5.29-1.49-2.12-4.62-1.08-6.94-.05-9.94,4.42-15.62,12.9-16.01,22.96-.91,23.77-.87,47.62-.09,71.41,.57,17.47,16.32,26.8,34.88,21.87,10.4-2.76,20.49-6.94,31.62-6.2,10.98,.73,20.86,3.85,28.94,11.67,2.22,2.14,2.65,3.62-.16,5.91-9.8,7.99-15.01,18.45-15.53,31.12-.15,3.59-1.52,3.66-3.91,1.71-4.26-3.46-8.38-7.1-12.77-10.38-14.83-11.08-30.5-12.89-47.24-4.32-7.19,3.68-14.97,5.47-23.12,5.25-14.66-.39-25.81-6.65-32.98-19.64-6.81-12.34-8.36-25.8-8.45-39.56-.05-8.66-.01-17.31-.01-25.97Z"/>
  <path class="cls-1 " d="M91.9,285.59c.32-16.79,5.48-31.99,15.34-45.56,4.3-5.92,8.79-11.71,13.84-17.05,1.91-2.02,3.85-2.81,6.64-2.01,6.79,1.96,13.2,1.55,18.49-3.87,1.69-1.74,2.84-1.11,3.87,.69,1.51,2.63,2.07,5.59,3.05,8.4,4.54,13.08,10.97,24.65,24.77,30.17,4.55,1.82,9.28,2.75,14.13,2.77,3.87,.02,4.72,1.74,4.26,5.29-.78,6.02-2.5,11.72-5.29,17.05-9.86,18.81-23,34.73-41.92,44.97-25.32,13.7-48.09,3.41-55.2-24.53-1.36-5.35-2.22-10.75-1.98-16.31Z"/>
  <path class="cls-1 cls-red" d="M20.05,110.05c-1.49-12.12,.32-24.34-1.98-36.38-1.22-6.35-2.92-12.62-4.66-18.86-1.07-3.86,.22-5.11,3.86-4.13,10.58,2.83,21.15,5.44,32.15,6.48,13.73,1.3,27.38,3.45,40.81,6.74,2.89,.71,5.73,1.69,8.52,2.74,11.02,4.17,14.78,10.53,13.72,22.36-1.01,11.27-3.95,22.28-4.48,33.62-.17,3.64-3.14,4.58-7,1.91-7.18-4.97-15.21-6.53-23.64-6.55-15.77-.04-23.35,6.45-26.61,21.92-2.68,12.71-2.25,25.46-1.22,38.27,.32,3.98,.31,7.98,.53,11.97,.24,4.34-1.78,4.35-4.87,2.72-6.87-3.62-11.85-9.07-15.23-15.98-6.08-12.42-9.31-25.62-9.83-39.39-.35-9.13-.07-18.29-.07-27.43Z"/>
  <path class="cls-1 cls-red" d="M312.78,170.06c-.11-10-.86-19.91-2.27-29.84-2.82-19.86-18.26-23.39-31.96-21.97-6.65,.69-12.97,2.39-18.66,6.36-4.28,3-6.76,1.5-6.97-3.6-.42-10.51-3.19-20.7-4.12-31.14-1.25-13.92,2.36-19.45,15.5-24.01,15.53-5.39,31.81-6.85,47.97-8.75,8.78-1.03,17.5-2,25.8-5.23,.62-.24,1.25-.46,1.89-.63,7.93-2.07,9.43-.97,6.71,6.69-6.08,17.12-4.27,34.85-5.14,52.4-.79,15.92,.6,31.99-3.5,47.68-1.9,7.25-3.9,14.45-7.35,21.12-3.2,6.2-7.75,11.17-14.23,14.18-2.6,1.21-3.71,.57-3.7-2.3,.03-6.99,.01-13.98,.01-20.98Z"/>
  <path class="cls-1 cls-face" d="M183.42,354.19c-10.92-.35-22.61-1.54-33.61-6.47-3.21-1.44-6.1-3.37-8.72-5.73-2.21-1.99-2.77-3.75,.58-5.11,.77-.31,1.47-.77,2.24-1.08,27.65-11.39,44.34-32.89,55.06-59.84,1.59-4,3.09-8.07,4.2-12.22,.93-3.47,2.84-4.72,6.33-4.95,6.02-.4,11.69-2.13,17.03-5.13,7.33-4.13,15.21-5.86,23.52-3.48,12.54,3.59,19.07,15.1,17.47,30.43-4.31,41.39-41.41,74.22-84.1,73.58Z"/>
  <path class="cls-1 cls-face " d="M106.92,157.22c-.25,20.11,1.82,37.99,10.96,54.37,1.25,2.24,.99,4.12-.75,5.85-9.66,9.61-16.18,21.5-23.71,32.65-3.67,5.43-5.48,5.6-9.79,.59-15.49-18-24.89-38.67-27.66-62.38-1.76-15.09-3.54-30.16,.06-45.19,2.27-9.5,6.61-17.51,17.31-19.75,5.15-1.08,5.79-.48,5.76,4.79-.02,4.16-.1,8.32,.18,12.46,.1,1.59,1.04,3.65,2.91,3.56,2.24-.12,1.69-2.45,1.86-3.96,.4-3.62-.36-7.31,.78-10.91,1.41-4.45,3.78-5.88,8.3-4.53,6.96,2.07,11.34,6.69,12.94,13.8,1.52,6.75,.77,13.6,.85,18.66Z"/>
  <path class="cls-1 cls-clothes" d="M236.08,396.86c-20.65,.05-28.43-12.25-20.44-27.17,7.73-14.42,19.35-25.71,31.66-36.24,8.34-7.13,16.96-13.92,27.24-18.21,4.04-1.68,8.23-2.69,12.53-3.12,15.77-1.56,26.53,10.91,23.51,27.25-1.93,10.44-6.93,19.4-14.14,27.01-17.43,18.41-39.2,27.89-60.37,30.47Z"/>
  <path class="cls-1 cls-face" d="M254.81,175.92c0-9.98-.16-19.96,.05-29.93,.17-8.04,4.25-14.19,10.51-18.96,2.48-1.89,5.28-3.05,8.36-1.61,3.02,1.41,4.21,4.13,4.33,7.33,.09,2.33-.05,4.66,.07,6.98,.11,2.16,.25,5.04,2.84,5.11,2.97,.08,2.59-2.99,2.56-5-.06-4.32-.2-8.67-.74-12.95-.51-3.99,1.26-4.55,4.54-3.96,7.77,1.41,12.61,6.21,15.65,13.2,2.29,5.26,3.56,10.83,3.65,16.47,.33,19.13,.32,38.27,.44,57.4,0,.5-.04,1-.08,1.5-.77,8.86-1.05,8.93-8.44,4.19-11.98-7.68-25.01-9.45-38.72-6.17-3.55,.85-4.99,.51-5.18-3.67-.46-9.98-.7-19.96,.16-29.94Z"/>
  <path class="cls-1 cls-clothes " d="M70.89,362.02c-16.07-.95-28.79-7.56-36.05-22.47-7.15-14.69-6.16-29.06,3.61-42.33,10.43-14.16,33.27-14.4,44.34-.69,1.46,1.8,2.79,3.74,3.91,5.77,5.85,10.65,12.15,21,19.98,30.33,2.24,2.67,2.06,4.59-.23,7.2-5.72,6.51-11.33,13.08-18.93,17.54-5.12,3-10.54,4.89-16.64,4.65Z"/>
  <path class="cls-2 " d="M181.22,28.63c-5.39,9.79-11.22,18.9-13.37,29.74-1.18,5.95-3.81,9.45-11.12,10.1-11.7,1.03-22.29,6.26-32,12.99-1.16,.8-2.23,2.46-3.89,1.49-1.71-1-.76-2.69-.46-4.07,1.94-8.91,2.83-18.05,6.3-26.63,3.37-8.33,8.93-14.29,17.38-17.48,1.71-.64,3.37-1.46,5.12-1.93,15.18-4,24.45-14.02,29.35-28.58,.55-1.63,.51-4.2,2.75-4.26,2.34-.07,2.21,2.53,2.75,4.13,4.74,14.16,13.36,24.16,28.4,28.12,15.54,4.09,23.73,15.01,26.56,30.43,1.02,5.56,2.13,11.1,3.19,16.66,.24,1.26,1.02,2.65-.5,3.6-1.28,.8-2.16-.26-3.08-.9-11.39-7.92-23.73-13.32-37.76-14.26-3.74-.25-4.23-3.46-4.97-6.05-3.31-11.58-7.87-22.58-14.66-33.09Z"/>
  <path class="cls-2 cls-red" d="M24.21,324.72c0,.51,.13,1.53-.03,2.5-.29,1.86,1.71,4.27-.52,5.47-2.18,1.17-4.52-.18-6.58-1.28-3.77-2.02-6.65-5.08-8.68-8.74-6.44-11.62-9.82-23.94-7.82-37.34,1.91-12.78,8.44-19.41,21.28-21.44,4.92-.78,9.92-1.72,14.86-1.61,7.96,.18,15-1.86,21.73-5.98,6.37-3.9,13.22-4.05,20.11-1.29,4.69,1.88,7.43,5.39,8.46,10.32,1.54,7.31,.53,14.59-.32,21.86-.3,2.55-1.53,3.65-4.02,1.88-1.35-.96-2.8-1.79-4.18-2.72-12.72-8.69-25.96-7.42-38.79-.96-9.63,4.85-12.34,14.77-14.43,24.47-1.01,4.69-1.51,9.54-1.07,14.88Z"/>
  <path class="cls-face" d="M43.69,224.65c2.21-1.51,1.74-3.84,1.71-5.9-.06-3.34-1.06-6.53-1.93-9.75-.66-2.46-1.8-5.62,1.38-7.07,3.21-1.46,5.87,.2,7.44,3.2,4.25,8.16,7.7,16.59,7.78,26.01,.01,1.16,.02,2.33-.04,3.5-.82,15.15-11.64,24.34-26.77,22.76-18.19-1.9-28.68-13.11-30.16-32.4-.35-4.63-.42-9.28,.64-13.9,2.32-10.08,7.3-15.66,14.93-16.43,8.21-.83,16.77,4.52,20.71,12.8,1.83,3.85,2.23,7.97,2.72,12.09,.21,1.78-.01,3.69,1.59,5.09Z"/>
  <path class="cls-2 cls-red" d="M344.9,329.48c-.28,11.89-5.12,22.56-16.6,29.8-5.91,3.73-11.8,7.44-18.63,9.27-1.42,.38-3.12,1.02-4.28-.17-1.34-1.36,.05-2.82,.61-4.08,3.06-6.81,6.83-13.28,9.26-20.38,6.45-18.8-2.94-33.97-22.68-37.06-7.8-1.22-14.8,.32-21.68,3.73-1.31,.65-2.98,2.25-4.51,.56-1.47-1.61,.15-3.19,.77-4.57,3.29-7.34,5.19-15.06,6.44-22.96,.42-2.64,.35-5.3-.26-7.93-.32-1.38-1.45-3.12,.13-4.13,1.85-1.18,3.06,.76,4.17,1.81,3.38,3.2,6.88,6.34,9.84,9.9,8.17,9.83,18.75,14.2,31.23,15.53,18.05,1.92,26.23,11.42,26.18,30.69Z"/>
  <path class="cls-2 cls-face" d="M168.2,373.06c-1.91-1.82-3.66-.96-5.4-.69-2.47,.39-5.37,2.06-6.89-1.53-1.45-3.41-.89-6.59,1.89-9.11,2.16-1.96,4.9-2.65,7.77-3.04,5.98-.8,11.96-.29,17.94-.27,8.98,.03,17.97-.45,26.96-.66,1.42-.03,3.23-.84,4.19,.59,1.03,1.54-.6,2.72-1.31,3.97-3.41,6.01-5.95,12.21-5.46,19.38,.33,4.89,1.81,9.05,5.52,12.39,1.04,.94,2.88,1.66,2.39,3.46-.57,2.13-2.78,1.45-4.26,1.8-3.66,.87-7.53,.4-10.85-.81-11.2-4.06-22.07-.75-33.02,.76-3.33,.46-6.64,.72-9.95,.48-5.68-.4-8.45-3.55-7.99-9.21,.63-7.76,5.53-12.11,12.36-14.76,1.96-.76,4.27-.74,6.13-2.76Z"/>
  <path class="cls-2 cls-face" d="M110.64,389.94c-11.05,.05-21.38,.84-31.61-1.14-3.44-.66-6.9-1.36-9.85-3.35-4.85-3.27-4.4-9.01,.94-11.37,4.01-1.77,8.38-1.99,12.7-2.33,6.13-.48,12.34-.59,18.38-1.66,12.38-2.2,21.76-9.05,27.38-20.3,1.97-3.95,4.08-3.96,7.43-2.66,11.86,4.61,18.89,20.9,13.82,32.54-2.91,6.67-8.98,8.58-15.49,9.1-8.13,.64-16.29,.82-23.7,1.17Z"/>
  <path class="cls-2 " d="M320.17,262.84c-8.64,0-17.29-.07-25.93,.05-2.49,.04-4.02-.44-3.27-3.27,2.83-10.68,7.26-20.43,17.18-26.4,13.22-7.96,30.42-2.25,38.51,12.56,1.84,3.37,2.94,7.02,4,10.69,1.07,3.69,.26,5.67-4.08,5.6-8.8-.15-17.6-.05-26.4-.05,0,.27,0,.54,0,.82Z"/>
  <path class="cls-2 cls-red" d="M320.87,267.58c9.47,0,18.94-.02,28.41,.01,4.87,.02,5.36,.74,2.82,5.17-7.42,12.95-18.91,18.87-33.58,17.95-12.45-.79-23.4-5.07-29.92-16.75-2.79-4.99-2.18-6.07,3.35-6.11,9.64-.08,19.28-.02,28.91-.02,0-.08,0-.16,0-.25Z"/>
  <path class="cls-2 " d="M228.95,215.4c-5.25-.68-9.79-3.15-13.14-7.63-2.13-2.85-1.71-5.64,.89-7.95,1.35-1.2,2.89-2.3,4.52-3.03,8.15-3.66,14.02-9.85,19.23-16.85,1.48-1.99,3.18-3.82,4.78-5.72,.75-.89,1.48-1.93,2.86-1.44,1.53,.55,1.17,1.88,.91,2.95-2.41,10.13-3.63,20.61-8.16,30.14-2.32,4.88-5.24,9.37-11.89,9.53Z"/>
  <path class="cls-2 " d="M134.55,215.92c-4.66-.52-7.99-3.1-10.46-6.87-3.22-4.91-5.11-10.42-6.79-15.99-1.43-4.77-2.74-9.58-3.97-14.4-.37-1.47-1.69-3.38,.31-4.45,1.72-.92,2.55,1.03,3.56,2.01,1.31,1.28,2.57,2.62,3.72,4.03,6.18,7.57,13.32,13.72,22.52,17.59,6.6,2.78,7.04,7.33,1.89,12.41-3,2.96-6.34,5.38-10.78,5.68Z"/>
  <path class="cls-2 cls-red" d="M90.75,368.67c-2.55-.81-6.66,.68-7.33-2.51-.57-2.69,3.48-2.86,5.6-3.79,7.28-3.23,13.78-7.18,17.47-14.72,.98-2.01,2.81-3.72,4.54-5.23,3.27-2.85,7.05-3.22,10.38-.35,3.13,2.69,2.01,6.26,.19,9.08-5.76,8.93-14.12,14.29-24.41,16.64-2.09,.48-4.26,.58-6.44,.87Z"/>
  <path class="cls-2 cls-red" d="M181.26,66.94c-11.23-.24-11.31-.26-7.49-10.95,1.56-4.36,3.52-8.57,5.32-12.84,.45-1.07,.92-2.33,2.33-2.22,1.08,.09,1.47,1.2,1.96,2.08,3.63,6.37,6.07,13.22,8.33,20.16,.93,2.87,.04,4.01-2.98,3.81-2.48-.16-4.98-.03-7.48-.03Z"/>
</svg>